<svg xmlns="http://www.w3.org/2000/svg" xmlns:xlink="http://www.w3.org/1999/xlink" version="1.1" x="0px" y="0px" viewBox="0 0 90 112.5" enable-background="new 0 0 90 90" xml:space="preserve" fill='grey'>
    <path d="M3.388,51.929c1.531,0.108,3.404,0.562,5.026,1.751c1.402,1.09,2.407,2.563,3.103,3.89  c-1.053-3.525-1.626-7.26-1.667-11.111c-0.367,0.02-1.33,0.043-2.514-0.16c-1.534-0.267-3.342-0.921-4.614-2.638  c-0.317-0.428-0.587-0.902-0.808-1.402c-0.193-0.5-0.343-1.027-0.455-1.561c-0.218-1.07-0.323-2.176-0.236-3.149  c0.06-0.979,0.188-1.843,0.303-2.456c0.131-0.61,0.261-0.971,0.261-0.971s1.162,0.188,2.542,0.85  c1.365,0.654,3.007,1.773,4.051,3.463c0.259,0.423,0.467,0.861,0.633,1.307c0.19,0.447,0.349,0.902,0.469,1.353  c0.245,0.872,0.315,1.723,0.432,2.496c0.241-3.938,1.074-7.763,2.409-11.367c-0.377-0.128-1.26-0.46-2.247-1.06  c-1.326-0.808-2.782-2.088-3.326-4.153c-0.293-1.042-0.277-2.153-0.08-3.226c0.181-1.082,0.512-2.139,0.943-3.014  c0.415-0.889,0.837-1.652,1.183-2.169c0.358-0.511,0.601-0.803,0.601-0.803s1.01,0.602,2.052,1.727  c1.038,1.114,2.124,2.737,2.489,4.705c0.168,0.977,0.128,1.938,0.044,2.878c-0.079,0.78-0.272,1.487-0.439,2.157  c1.241-2.665,2.785-5.163,4.579-7.456c-0.329-0.25-0.911-0.736-1.507-1.42c-0.893-1.031-1.799-2.521-1.745-4.427  c0.009-0.967,0.332-1.875,0.752-2.746c0.418-0.873,0.962-1.676,1.543-2.309c0.566-0.647,1.118-1.176,1.526-1.54  c0.421-0.351,0.702-0.532,0.702-0.532s0.722,0.772,1.345,1.995c0.615,1.21,1.173,2.898,0.986,4.668  c-0.165,1.301-0.659,2.534-1.232,3.561c1.926-2.019,4.078-3.813,6.431-5.337c-0.206-0.3-0.524-0.805-0.821-1.484  c-0.468-1.077-0.832-2.532-0.334-4.074c0.525-1.485,1.827-2.768,3.044-3.531c1.216-0.771,2.263-1.166,2.263-1.166  s0.411,0.802,0.647,1.966c0.238,1.162,0.313,2.682-0.263,4.078c-0.598,1.355-1.633,2.525-2.6,3.248  c-0.257,0.229-0.503,0.426-0.729,0.596c0.088,0.05,0.169,0.116,0.226,0.208c0.065,0.105,0.087,0.221,0.087,0.336  c0.25-0.137,0.526-0.278,0.848-0.417c1.138-0.379,2.582-0.744,3.95-0.182c1.35,0.518,2.263,1.655,2.86,2.655  c0.596,1,0.885,1.858,0.885,1.858s-0.635,0.372-1.581,0.587c-0.951,0.213-2.159,0.415-3.473-0.035  c-1.279-0.395-2.42-1.349-3.217-2.211c-0.521-0.561-0.874-1.063-1.073-1.362c-2.466,1.595-4.71,3.494-6.689,5.649  c1.073-0.754,2.47-1.437,4.002-1.279c1.662,0.134,3.042,1.128,4.043,2.084c0.99,0.946,1.586,1.812,1.586,1.812  s-0.156,0.132-0.426,0.337c-0.259,0.219-0.634,0.502-1.11,0.768c-0.491,0.25-1.035,0.539-1.663,0.744  c-0.628,0.206-1.376,0.3-2.134,0.301c-1.553-0.032-3.158-0.703-4.352-1.386c-0.849-0.482-1.469-0.967-1.768-1.214  c-1.677,2.144-3.123,4.479-4.303,6.965c0.367-0.457,0.821-0.894,1.303-1.291c0.663-0.561,1.499-0.975,2.411-1.154  c1.8-0.38,3.606,0.285,4.964,0.997c1.346,0.711,2.252,1.454,2.252,1.454s-0.114,0.191-0.342,0.475  c-0.214,0.293-0.502,0.707-0.919,1.12c-0.435,0.406-0.904,0.867-1.503,1.268c-0.618,0.39-1.332,0.736-2.143,0.969  c-1.667,0.444-3.601,0.264-5.068-0.049c-1.027-0.218-1.844-0.515-2.257-0.679c-1.188,3.208-1.952,6.604-2.249,10.096  c0.168-0.464,0.386-0.932,0.637-1.382c0.218-0.382,0.466-0.748,0.757-1.081c0.315-0.331,0.667-0.628,1.058-0.881  c1.555-1.011,3.441-1.065,4.975-0.898c1.516,0.166,2.632,0.522,2.632,0.522s-0.048,0.217-0.141,0.567  c-0.073,0.355-0.206,0.841-0.441,1.378c-0.263,0.532-0.505,1.141-0.929,1.732c-0.208,0.297-0.453,0.591-0.738,0.875  c-0.258,0.287-0.552,0.563-0.897,0.822c-1.377,1.03-3.26,1.57-4.736,1.818c-1.004,0.169-1.856,0.195-2.312,0.194  c0.038,3.696,0.586,7.28,1.588,10.664c-0.117-1.43,0.041-3.11,1.03-4.449c1.046-1.501,2.848-2.252,4.314-2.651  c1.47-0.396,2.64-0.472,2.64-0.472s0.154,0.866,0.164,2.024c-0.029,0.588-0.102,1.256-0.241,1.948  c-0.148,0.694-0.496,1.455-0.913,2.171c-0.893,1.454-2.429,2.64-3.744,3.424c-0.969,0.583-1.829,0.937-2.21,1.079  c1.501,3.828,3.616,7.327,6.214,10.383c-0.14-0.199-0.278-0.391-0.421-0.617c-0.757-1.349-1.412-3.19-0.934-5.004  c0.414-1.78,1.828-3.148,3.036-4.056c1.218-0.909,2.279-1.41,2.279-1.41s0.457,0.747,0.897,1.824  c0.195,0.553,0.37,1.206,0.496,1.904c0.118,0.705,0.08,1.536-0.046,2.359c-0.298,1.683-1.293,3.351-2.229,4.56  c-0.796,1.042-1.577,1.744-1.772,1.915c2.575,2.708,5.574,4.984,8.911,6.729c-1.15-0.97-2.329-2.392-2.534-4.173  c-0.258-1.813,0.546-3.589,1.344-4.883c0.804-1.293,1.608-2.145,1.608-2.145s0.707,0.524,1.504,1.372  c0.196,0.22,0.391,0.469,0.579,0.742c0.205,0.253,0.4,0.535,0.579,0.848c0.359,0.623,0.636,1.394,0.816,2.212  c0.335,1.675,0.011,3.605-0.41,5.056c-0.292,1.011-0.647,1.81-0.841,2.206c0.69,0.288,1.385,0.57,2.101,0.814  c0.338,0.113,0.519,0.48,0.403,0.815c-0.091,0.27-0.342,0.441-0.611,0.44c-0.067,0-0.137-0.014-0.206-0.036  c-0.759-0.258-1.496-0.556-2.229-0.861c-0.156,0.372-0.55,1.221-1.213,2.158c-0.895,1.255-2.269,2.602-4.377,3.018  c-1.064,0.228-2.151,0.103-3.219-0.151c-0.533-0.127-1.057-0.291-1.561-0.478c-0.485-0.207-0.948-0.439-1.378-0.674  c-1.746-0.915-2.837-1.989-2.837-1.986c0,0,0.671-0.967,1.866-1.929c1.191-0.964,2.873-1.914,4.867-2.151  c1.6-0.146,3.176,0.169,4.511,0.591c-3.205-1.762-6.095-4.006-8.6-6.636c-0.342,0.332-0.944,0.868-1.743,1.393  c-1.278,0.828-3.062,1.592-5.173,1.211c-1.075-0.174-2.029-0.699-2.939-1.314c-0.921-0.61-1.69-1.39-2.313-2.146  c-1.302-1.482-1.918-2.889-1.918-2.889s0.978-0.653,2.44-1.112c1.473-0.47,3.366-0.729,5.315-0.226  c1.405,0.405,2.657,1.157,3.689,1.955c-2.102-2.769-3.85-5.832-5.146-9.139c-0.403,0.177-1.222,0.5-2.271,0.718  c-1.489,0.301-3.433,0.36-5.262-0.772c-0.938-0.557-1.626-1.398-2.249-2.309c-0.633-0.91-1.069-1.917-1.364-2.853  c-0.66-1.86-0.721-3.392-0.721-3.392S1.858,51.818,3.388,51.929z"/>
</svg>