<svg xmlns="http://www.w3.org/2000/svg" xmlns:xlink="http://www.w3.org/1999/xlink" version="1.1" x="0px" y="0px" viewBox="0 0 90 112.5" enable-background="new 0 0 90 90" xml:space="preserve" fill="grey">
    <path d="M86.611,52.054c-1.531,0.104-3.405,0.552-5.029,1.735c-1.408,1.086-2.416,2.556-3.115,3.88  c1.062-3.521,1.646-7.254,1.7-11.105c0.367,0.021,1.33,0.047,2.514-0.152c1.535-0.263,3.343-0.911,4.623-2.624  c0.319-0.427,0.587-0.9,0.811-1.4c0.194-0.5,0.346-1.026,0.461-1.559c0.221-1.07,0.33-2.175,0.245-3.149  c-0.057-0.979-0.183-1.843-0.295-2.456c-0.13-0.611-0.258-0.971-0.258-0.971s-1.165,0.185-2.545,0.842  c-1.368,0.65-3.014,1.764-4.062,3.451c-0.259,0.423-0.47,0.86-0.635,1.306c-0.194,0.446-0.353,0.9-0.475,1.351  c-0.247,0.871-0.321,1.722-0.439,2.495c-0.23-3.938-1.051-7.767-2.373-11.375c0.377-0.126,1.258-0.457,2.249-1.053  c1.327-0.804,2.788-2.079,3.336-4.143c0.297-1.041,0.287-2.153,0.091-3.226c-0.178-1.083-0.504-2.141-0.933-3.017  c-0.413-0.89-0.831-1.655-1.177-2.173c-0.356-0.512-0.598-0.805-0.598-0.805s-1.013,0.599-2.058,1.721  c-1.041,1.111-2.131,2.731-2.503,4.697c-0.172,0.976-0.134,1.938-0.054,2.877c0.077,0.781,0.268,1.488,0.433,2.159  c-1.232-2.669-2.77-5.172-4.555-7.469c0.328-0.25,0.911-0.734,1.51-1.417c0.897-1.028,1.807-2.515,1.758-4.421  c-0.004-0.967-0.327-1.876-0.743-2.749c-0.413-0.874-0.957-1.679-1.534-2.312c-0.567-0.649-1.117-1.18-1.522-1.545  c-0.422-0.352-0.701-0.534-0.701-0.534s-0.724,0.77-1.351,1.991c-0.619,1.208-1.182,2.894-1.001,4.666  c0.162,1.301,0.652,2.536,1.222,3.564c-1.919-2.024-4.066-3.825-6.416-5.355c0.207-0.3,0.528-0.804,0.826-1.482  c0.473-1.075,0.84-2.529,0.348-4.073c-0.521-1.486-1.819-2.772-3.033-3.54c-1.214-0.775-2.258-1.173-2.258-1.173  s-0.416,0.801-0.655,1.964c-0.242,1.161-0.322,2.681,0.249,4.079c0.596,1.357,1.626,2.53,2.591,3.256  c0.258,0.229,0.502,0.427,0.728,0.598c-0.088,0.05-0.17,0.116-0.227,0.207c-0.064,0.105-0.086,0.221-0.088,0.336  c-0.248-0.138-0.525-0.28-0.846-0.42c-1.138-0.382-2.579-0.751-3.95-0.194c-1.351,0.514-2.269,1.648-2.869,2.646  c-0.598,0.999-0.89,1.855-0.89,1.855s0.634,0.374,1.581,0.592c0.948,0.215,2.157,0.42,3.473-0.025  c1.277-0.391,2.424-1.341,3.222-2.201c0.522-0.559,0.879-1.061,1.078-1.359c2.461,1.602,4.7,3.508,6.672,5.669  c-1.069-0.757-2.465-1.444-3.996-1.291c-1.663,0.129-3.047,1.119-4.051,2.072c-0.993,0.943-1.592,1.808-1.592,1.808  s0.157,0.133,0.425,0.339c0.258,0.219,0.632,0.504,1.108,0.771c0.49,0.252,1.034,0.542,1.661,0.749  c0.628,0.208,1.376,0.304,2.134,0.308c1.551-0.027,3.157-0.694,4.355-1.374c0.849-0.479,1.471-0.962,1.771-1.209  c1.669,2.149,3.108,4.488,4.279,6.978c-0.365-0.458-0.815-0.897-1.297-1.295c-0.662-0.562-1.497-0.979-2.407-1.162  c-1.8-0.385-3.609,0.274-4.966,0.982c-1.349,0.708-2.26,1.447-2.26,1.447s0.116,0.191,0.343,0.476  c0.212,0.294,0.499,0.709,0.914,1.123c0.434,0.407,0.903,0.87,1.498,1.272c0.617,0.392,1.331,0.74,2.142,0.975  c1.663,0.449,3.601,0.275,5.07-0.034c1.025-0.215,1.843-0.51,2.257-0.672c1.177,3.211,1.932,6.609,2.219,10.103  c-0.167-0.465-0.383-0.934-0.633-1.384c-0.218-0.383-0.463-0.75-0.752-1.084c-0.315-0.332-0.667-0.63-1.058-0.884  c-1.551-1.016-3.438-1.076-4.971-0.913c-1.516,0.161-2.634,0.514-2.634,0.514s0.047,0.217,0.14,0.567  c0.072,0.355,0.202,0.842,0.436,1.379c0.261,0.533,0.502,1.143,0.923,1.735c0.209,0.298,0.454,0.593,0.737,0.878  c0.256,0.287,0.55,0.564,0.896,0.824c1.373,1.035,3.255,1.58,4.731,1.832c1.004,0.173,1.855,0.201,2.311,0.202  c-0.051,3.696-0.606,7.278-1.62,10.659c0.12-1.429-0.034-3.111-1.019-4.452c-1.039-1.505-2.838-2.26-4.307-2.665  c-1.466-0.399-2.638-0.479-2.638-0.479s-0.155,0.866-0.169,2.024c0.026,0.588,0.098,1.256,0.235,1.948  c0.147,0.696,0.49,1.457,0.907,2.175c0.888,1.456,2.419,2.646,3.732,3.435c0.966,0.586,1.827,0.941,2.208,1.086  c-1.512,3.824-3.639,7.315-6.244,10.363c0.139-0.197,0.279-0.389,0.421-0.615c0.762-1.347,1.421-3.187,0.948-5.002  c-0.407-1.78-1.817-3.152-3.022-4.063c-1.218-0.913-2.275-1.418-2.275-1.418s-0.46,0.747-0.903,1.822  c-0.196,0.553-0.373,1.204-0.503,1.902c-0.118,0.705-0.084,1.536,0.039,2.359c0.295,1.685,1.284,3.354,2.216,4.567  c0.792,1.044,1.572,1.748,1.767,1.919c-2.584,2.7-5.587,4.969-8.932,6.704c1.154-0.968,2.338-2.386,2.548-4.165  c0.262-1.813-0.536-3.591-1.331-4.888c-0.799-1.296-1.601-2.149-1.601-2.149s-0.707,0.522-1.508,1.368  c-0.197,0.218-0.393,0.467-0.583,0.74c-0.203,0.252-0.401,0.533-0.579,0.846c-0.36,0.621-0.643,1.392-0.826,2.21  c-0.338,1.673-0.019,3.605,0.397,5.056c0.287,1.013,0.642,1.812,0.834,2.21c-0.693,0.285-1.388,0.565-2.104,0.807  c-0.336,0.113-0.519,0.48-0.405,0.815c0.089,0.27,0.341,0.441,0.61,0.442c0.068,0,0.137-0.014,0.207-0.036  c0.759-0.256,1.497-0.552,2.229-0.855c0.156,0.374,0.548,1.223,1.208,2.162c0.889,1.259,2.26,2.609,4.366,3.031  c1.064,0.231,2.152,0.108,3.222-0.142c0.533-0.125,1.057-0.288,1.561-0.474c0.487-0.205,0.95-0.436,1.38-0.67  c1.75-0.909,2.844-1.979,2.844-1.977c0,0-0.669-0.969-1.861-1.935c-1.188-0.968-2.866-1.923-4.859-2.166  c-1.602-0.15-3.178,0.16-4.513,0.578c3.21-1.753,6.105-3.988,8.617-6.61c0.342,0.332,0.942,0.87,1.74,1.396  c1.276,0.832,3.056,1.602,5.17,1.227c1.074-0.17,2.03-0.692,2.941-1.305c0.923-0.608,1.695-1.386,2.321-2.14  c1.308-1.479,1.927-2.883,1.927-2.883s-0.976-0.655-2.438-1.118c-1.47-0.476-3.363-0.741-5.313-0.242  c-1.405,0.4-2.66,1.148-3.696,1.944c2.111-2.763,3.868-5.82,5.176-9.123c0.402,0.177,1.22,0.504,2.267,0.724  c1.489,0.306,3.431,0.37,5.263-0.757c0.944-0.553,1.631-1.393,2.257-2.301c0.637-0.908,1.075-1.915,1.376-2.849  c0.663-1.858,0.729-3.39,0.729-3.39S88.143,51.947,86.611,52.054z"/>
</svg>